Coordinates
version=1
nRows=8
nColumns=40
inDegrees=yes

Units are S.I. units (second, meters, Newtons, ...)
Angles are in degrees.

endheader
time	pelvis_tilt	pelvis_list	pelvis_rotation	pelvis_tx	pelvis_ty	pelvis_tz	hip_flexion_r	hip_adduction_r	hip_rotation_r	knee_angle_r	knee_angle_r_beta	ankle_angle_r	subtalar_angle_r	mtp_angle_r	hip_flexion_l	hip_adduction_l	hip_rotation_l	knee_angle_l	knee_angle_l_beta	ankle_angle_l	subtalar_angle_l	mtp_angle_l	lumbar_extension	lumbar_bending	lumbar_rotation	arm_flex_r	arm_add_r	arm_rot_r	elbow_flex_r	pro_sup_r	wrist_flex_r	wrist_dev_r	arm_flex_l	arm_add_l	arm_rot_l	elbow_flex_l	pro_sup_l	wrist_flex_l	wrist_dev_l
     24.12000000	     -1.93886521	     -4.87961238	      1.34416835	      1.07969190	      0.92859534	      0.49295851	     10.43032433	      1.24712020	    -12.24032846	     20.62007415	     20.62007415	     13.75398881	      1.08051548	     -2.59808061	     28.16244791	    -13.76213678	      2.82422528	     68.04868270	     68.04868270	      2.55037110	    -14.58041577	      4.66884759	    -10.15906269	      3.92722021	     -0.39622762	     18.00907626	    -22.14470733	      0.56941224	     88.87387910	     44.83452062	      0.00000000	      0.00000000	     -1.95011159	    -11.40087506	    -15.85837538	     34.16592590	     44.88926758	      0.00000000	      0.00000000
     24.13350000	     -2.13606816	     -4.71198365	      1.81924963	      1.07778375	      0.92944736	      0.49363070	      9.89546776	      1.20478525	    -12.59626107	     19.74849424	     19.74849424	     13.69857513	      1.14755811	     -2.42464134	     29.70826012	    -13.50299498	      2.86836813	     66.87699718	     66.87699718	      2.74342323	    -15.35533221	      4.81180478	    -10.23957654	      3.81505768	     -0.15981590	     19.47939632	    -22.00147816	      0.43308486	     89.80572856	     44.81990066	      0.00000000	      0.00000000	     -2.01193835	    -11.17558295	    -15.77661510	     33.88283406	     44.89964287	      0.00000000	      0.00000000
     24.14700000	     -2.41468010	     -4.50770208	      2.23274000	      1.07577530	      0.93012145	      0.49427179	      9.54433713	      1.10669057	    -12.85624513	     19.03617444	     19.03617444	     13.62892875	      1.18997430	     -2.28687635	     31.19482049	    -13.24578318	      2.70566898	     65.43919116	     65.43919116	      3.02373985	    -15.93476053	      4.97805973	    -10.30224359	      3.66634255	      0.21278988	     20.97119859	    -22.01816503	      0.24810990	     90.56000474	     44.81058448	      0.00000000	      0.00000000	     -2.02349753	    -10.93602004	    -15.70707791	     33.70367675	     44.90135608	      0.00000000	      0.00000000
     24.16050000	     -2.57350593	     -4.36752247	      2.72510525	      1.07396269	      0.93098521	      0.49480719	      8.93316272	      1.09833539	    -13.26850447	     18.10071925	     18.10071925	     13.50961265	      1.32671422	     -2.19390959	     32.38618379	    -12.92664601	      2.66497591	     63.60256961	     63.60256961	      3.27148958	    -16.69042740	      5.39085912	    -10.43622277	      3.59033846	      0.33989363	     22.39710987	    -21.80014837	      0.16207775	     91.62242433	     44.79111015	      0.00000000	      0.00000000	     -2.08693207	    -10.76326760	    -15.61482614	     33.27413480	     44.91309220	      0.00000000	      0.00000000
     24.17400000	     -2.85768648	     -4.18915611	      3.14988567	      1.07205280	      0.93154821	      0.49528580	      8.55812975	      1.03026491	    -13.56678733	     17.33453508	     17.33453508	     13.42194057	      1.37660968	     -2.11690351	     33.54288949	    -12.62845349	      2.38799239	     61.40426511	     61.40426511	      3.62851107	    -17.15835008	      5.79669686	    -10.47041046	      3.46586452	      0.65600127	     23.79952409	    -21.77469262	      0.01789295	     92.37328247	     44.78132275	      0.00000000	      0.00000000	     -2.08327460	    -10.56355097	    -15.54272917	     33.04721551	     44.91854524	      0.00000000	      0.00000000
     24.18750000	     -3.13180846	     -4.04153378	      3.58475547	      1.07018645	      0.93205218	      0.49560840	      8.15931404	      0.99200549	    -13.87108559	     16.53700615	     16.53700615	     13.31785212	      1.44805434	     -2.06105067	     34.48578480	    -12.29037786	      2.10451550	     58.75201625	     58.75201625	      4.06513807	    -17.53260349	      6.27487948	    -10.50818016	      3.36085083	      0.89974884	     25.13078416	    -21.67087405	     -0.09022750	     93.12410361	     44.77006969	      0.00000000	      0.00000000	     -2.08519701	    -10.39520756	    -15.47265152	     32.81655561	     44.92386682	      0.00000000	      0.00000000
     24.20100000	     -3.39083438	     -3.91871681	      4.03975652	      1.06835397	      0.93247376	      0.49576120	      7.70522653	      0.97632632	    -14.23312174	     15.66791005	     15.66791005	     13.17558647	      1.57787179	     -2.10148780	     35.21033269	    -11.90551949	      1.81902356	     55.64650862	     55.64650862	      4.59403466	    -17.72415720	      6.84071315	    -10.58797671	      3.30010571	      1.04389015	     26.42023637	    -21.47828394	     -0.13416606	     93.91044954	     44.75741572	      0.00000000	      0.00000000	     -2.06131240	    -10.22996480	    -15.39146729	     32.52708247	     44.93547042	      0.00000000	      0.00000000
     24.21450000	     -3.83467968	     -3.80659985	      4.42823900	      1.06639947	      0.93239130	      0.49575620	      7.60803158	      0.91834181	    -14.49017225	     15.07802187	     15.07802187	     13.12888796	      1.57492442	     -2.11262980	     35.93255727	    -11.49123423	      1.45870051	     52.15438700	     52.15438700	      5.15852910	    -17.62160372	      7.22138206	    -10.46906899	      3.22960489	      1.34842897	     27.65850107	    -21.45858978	     -0.22191615	     94.43197165	     44.75133676	      0.00000000	      0.00000000	     -1.99610213	    -10.02846101	    -15.33597218	     32.45816801	     44.93817450	      0.00000000	      0.00000000
